<svg xmlns="http://www.w3.org/2000/svg" viewBox="0 0 302.45 304.02"><defs><style>.cls-1,.cls-2,.cls-3{fill:none;}.cls-1,.cls-2{stroke:#000;}.cls-1{stroke-width:3px;}.cls-2{stroke-miterlimit:10;stroke-width:2px;}.cls-4{font-size:60px;font-family:'Forum';letter-spacing:0.08em;}.cls-5{letter-spacing:0.03em;}</style></defs><title>Monika Logo</title><g id="Koła_zewnętrzne" data-name="Koła zewnętrzne"><ellipse class="cls-1" cx="154.74" cy="148.51" rx="146.21" ry="147.01"/><ellipse class="cls-1" cx="147.71" cy="155.51" rx="146.21" ry="147.01"/></g><g id="Obiektyw"><circle class="cls-1" cx="155.2" cy="228.45" r="30.92"/><line class="cls-2" x1="149.52" y1="198.06" x2="173.14" y2="221.35"/><line class="cls-2" x1="172.53" y1="235.92" x2="173.88" y2="203.82"/><line class="cls-2" x1="185.71" y1="223.49" x2="164.41" y2="243.59"/><line class="cls-2" x1="182.11" y1="243.66" x2="150.32" y2="243.54"/><line class="cls-2" x1="164.14" y1="258.05" x2="140.04" y2="232.37"/><line class="cls-2" x1="147.39" y1="211.85" x2="124.66" y2="233.32"/><line class="cls-2" x1="163.56" y1="211.91" x2="129.2" y2="211.91"/><line class="cls-2" x1="140.04" y1="218.79" x2="140.04" y2="255.39"/><path class="cls-3" d="M317.85,405.61" transform="translate(-239.53 -158.37)"/></g><g id="Photograpy"><path d="M332.36,412.61l2.67,1.22a5.85,5.85,0,0,1,2.87,2.43,4.17,4.17,0,0,1,.24,3.27,3.53,3.53,0,0,1-.91,1.56,3.39,3.39,0,0,1-1.38.83,4.15,4.15,0,0,1-1.62.16,4.85,4.85,0,0,1-1.6-.42l-.72-.32-1.79,5.88a3.51,3.51,0,0,0-.08.42,1.77,1.77,0,0,0,0,.46,2.47,2.47,0,0,0,.09.41.38.38,0,0,0,.21.25l.09,0-.07.23-2.63-1.2.07-.23.09,0a.33.33,0,0,0,.29,0,1.28,1.28,0,0,0,.29-.24,2.36,2.36,0,0,0,.23-.35,2,2,0,0,0,.16-.39l3.74-12.29a2.24,2.24,0,0,0,.07-.81.77.77,0,0,0-.29-.66l-.09,0Zm1.69,1.69-1.89,6.23.56.26a3.67,3.67,0,0,0,1.43.36,2.86,2.86,0,0,0,1.2-.21,2.55,2.55,0,0,0,.89-.67,2.66,2.66,0,0,0,.54-1,4.78,4.78,0,0,0,.2-1.34,3.34,3.34,0,0,0-.27-1.31,3.74,3.74,0,0,0-.85-1.2,5.56,5.56,0,0,0-1.54-1Z" transform="translate(-239.53 -158.37)"/><path d="M345.25,434.91l.1,0a.31.31,0,0,0,.28,0,1,1,0,0,0,.29-.26,1.93,1.93,0,0,0,.23-.37,2.4,2.4,0,0,0,.14-.4l1.6-6.4-6.14-2.31-1.6,6.4a2.58,2.58,0,0,0-.07.43,2.2,2.2,0,0,0,0,.45,1.24,1.24,0,0,0,.1.4.38.38,0,0,0,.22.24l.09,0-.05.24-2.69-1,.06-.24.09,0a.34.34,0,0,0,.29,0,1.05,1.05,0,0,0,.28-.25,1.6,1.6,0,0,0,.23-.38,2.66,2.66,0,0,0,.14-.39L342,418.54a2.06,2.06,0,0,0,.05-.39,2.14,2.14,0,0,0,0-.44,1.38,1.38,0,0,0-.11-.39.45.45,0,0,0-.24-.23l-.1,0,.06-.23,2.69,1-.06.23-.1,0a.35.35,0,0,0-.3,0,1,1,0,0,0-.26.25,3.07,3.07,0,0,0-.2.36,3,3,0,0,0-.14.37L342,424.34l6.14,2.31,1.33-5.31a2.12,2.12,0,0,0,.06-.4,2.16,2.16,0,0,0,0-.44,1.25,1.25,0,0,0-.11-.39.43.43,0,0,0-.23-.23l-.1,0,.06-.23,2.69,1-.06.23-.1,0a.32.32,0,0,0-.3,0,.69.69,0,0,0-.26.25,1.55,1.55,0,0,0-.21.36,2.28,2.28,0,0,0-.13.36l-3.14,12.54a1.88,1.88,0,0,0-.05.43,2.3,2.3,0,0,0,0,.46,1.56,1.56,0,0,0,.1.4.37.37,0,0,0,.21.23l.09,0-.06.23-2.68-1Z" transform="translate(-239.53 -158.37)"/><path d="M360.46,422.9a6.34,6.34,0,0,1,2.62,1.41,7.48,7.48,0,0,1,1.75,2.34,9.17,9.17,0,0,1,.85,3,10.81,10.81,0,0,1-.1,3.21,9.54,9.54,0,0,1-1.14,3.17,7.2,7.2,0,0,1-1.94,2.2,6.33,6.33,0,0,1-2.49,1.1,5.92,5.92,0,0,1-2.77-.11,6,6,0,0,1-2.59-1.41,7.32,7.32,0,0,1-1.72-2.33,9.39,9.39,0,0,1-.83-2.89,10.6,10.6,0,0,1,.1-3.13,10.08,10.08,0,0,1,1-2.92,8.09,8.09,0,0,1,1.81-2.32,6.17,6.17,0,0,1,2.47-1.32A5.54,5.54,0,0,1,360.46,422.9Zm-2.8,15.5a4.41,4.41,0,0,0,2.43-.1,5.23,5.23,0,0,0,2-1.24,7.15,7.15,0,0,0,1.39-2,9.17,9.17,0,0,0,.77-2.34,10.27,10.27,0,0,0,.08-2.78,9.58,9.58,0,0,0-.68-2.74,7.4,7.4,0,0,0-1.41-2.25,4.47,4.47,0,0,0-2.15-1.3,3.67,3.67,0,0,0-2.3.07,5.47,5.47,0,0,0-1.94,1.25,7.25,7.25,0,0,0-1.45,2,8.92,8.92,0,0,0-.8,2.4,9.45,9.45,0,0,0-.07,2.77,10.18,10.18,0,0,0,.71,2.72,7.29,7.29,0,0,0,1.4,2.22A4.21,4.21,0,0,0,357.66,438.4Z" transform="translate(-239.53 -158.37)"/><path d="M371.29,441.8l.09,0,0,.24-2.81-.5,0-.25.1,0a.32.32,0,0,0,.3-.1,1.53,1.53,0,0,0,.25-.3,2.1,2.1,0,0,0,.18-.4,4,4,0,0,0,.09-.42l1.63-13.59-2.3-.42a1,1,0,0,0-.58.07,1.39,1.39,0,0,0-.44.36,1.79,1.79,0,0,0-.31.52,2,2,0,0,0-.15.58l-.2,0,.32-2.65,8.91,1.61-.31,2.65-.2,0a2.5,2.5,0,0,0,0-.61,2.39,2.39,0,0,0-.17-.61,1.74,1.74,0,0,0-.35-.5,1,1,0,0,0-.53-.27l-2.35-.42-1.63,13.59a3,3,0,0,0,0,.43,1.63,1.63,0,0,0,.08.45,1.88,1.88,0,0,0,.15.38A.38.38,0,0,0,371.29,441.8Z" transform="translate(-239.53 -158.37)"/><path d="M383.68,427.06a5.87,5.87,0,0,1,2.77.91,6.93,6.93,0,0,1,2,2,8.76,8.76,0,0,1,1.19,2.77,10.62,10.62,0,0,1,.3,3.19,10,10,0,0,1-.74,3.34,7.89,7.89,0,0,1-1.66,2.53,6.77,6.77,0,0,1-2.33,1.54,6,6,0,0,1-2.75.4,5.59,5.59,0,0,1-2.73-.92,6.71,6.71,0,0,1-2-2,8.59,8.59,0,0,1-1.17-2.71,10.41,10.41,0,0,1-.29-3.11,10.83,10.83,0,0,1,.63-3.07,8.68,8.68,0,0,1,1.51-2.62,6.76,6.76,0,0,1,2.28-1.76A5.68,5.68,0,0,1,383.68,427.06Zm-.89,15.84a4.63,4.63,0,0,0,2.4-.55,5.75,5.75,0,0,0,1.79-1.58,7.85,7.85,0,0,0,1.14-2.21,9.48,9.48,0,0,0,.22-5.22,9.55,9.55,0,0,0-1-2.58,6.88,6.88,0,0,0-1.68-2,4.15,4.15,0,0,0-2.28-.89,3.72,3.72,0,0,0-2.26.49,5.8,5.8,0,0,0-1.77,1.59,8,8,0,0,0-1.19,2.27,9.39,9.39,0,0,0-.5,2.52,9.73,9.73,0,0,0,1.3,5.31,6.66,6.66,0,0,0,1.65,1.94A4,4,0,0,0,382.79,442.9Z" transform="translate(-239.53 -158.37)"/><path d="M400.85,435.16l2.87-.12v.24h-.1a.37.37,0,0,0-.28.14,1.25,1.25,0,0,0-.19.34,3,3,0,0,0-.12.43,2,2,0,0,0,0,.39l.19,6.6a5.82,5.82,0,0,1-.82.33c-.3.09-.62.18-.95.25s-.67.13-1,.18l-1,.09a6.32,6.32,0,0,1-3.17-.61,6.51,6.51,0,0,1-2.28-1.84A8.18,8.18,0,0,1,392.6,439a10.75,10.75,0,0,1-.52-3,11,11,0,0,1,.35-3.05,8.28,8.28,0,0,1,1.24-2.73,6.92,6.92,0,0,1,2.2-2,6.78,6.78,0,0,1,3.2-.87,5.46,5.46,0,0,1,1.3.09l1.07.23.46.12a1.05,1.05,0,0,0,.33,0h.18l.08,2.6h-.2a2.8,2.8,0,0,0-.51-1.21,2.54,2.54,0,0,0-.83-.68,3.45,3.45,0,0,0-1-.29,5.35,5.35,0,0,0-1,0,5,5,0,0,0-2.59.76,5.79,5.79,0,0,0-1.76,1.76,7.54,7.54,0,0,0-1,2.37,9.55,9.55,0,0,0-.27,2.59,8.94,8.94,0,0,0,.52,2.79,8.33,8.33,0,0,0,1.31,2.43,6.3,6.3,0,0,0,2,1.69,4.74,4.74,0,0,0,2.53.57,4.86,4.86,0,0,0,.94-.15,3,3,0,0,0,1.11-.55l-.16-5.78a2.08,2.08,0,0,0-.05-.39,1.8,1.8,0,0,0-.14-.41,1.72,1.72,0,0,0-.22-.33.42.42,0,0,0-.29-.12h-.1Z" transform="translate(-239.53 -158.37)"/><path d="M410,442.49l.1,0,0,.25-2.8.46,0-.24.1,0a.39.39,0,0,0,.24-.19,1.4,1.4,0,0,0,.17-.37,1.63,1.63,0,0,0,.09-.45,3.12,3.12,0,0,0,0-.44l-1.42-13a2.27,2.27,0,0,0-.09-.38,1.61,1.61,0,0,0-.17-.4,1.22,1.22,0,0,0-.25-.29.3.3,0,0,0-.27-.09h-.1l0-.24,3.47-.57a4.35,4.35,0,0,1,3.17.45,3.34,3.34,0,0,1,1.39,2.62,4.73,4.73,0,0,1-.07,1.66,4,4,0,0,1-.53,1.31,3.62,3.62,0,0,1-.9,1,5.67,5.67,0,0,1-1.15.65l1.72,2.44c.42.6.84,1.18,1.27,1.75s.85,1.15,1.26,1.76c.11.15.24.3.37.46a2.82,2.82,0,0,0,.41.43,1.46,1.46,0,0,0,.44.29.75.75,0,0,0,.44.07l0,.24-.85.14a1.78,1.78,0,0,1-1.36-.26,4,4,0,0,1-1-1c-.72-1-1.43-2-2.14-3s-1.42-2-2.12-3l-.47,0h-.48l.73,6.68a2.1,2.1,0,0,0,.09.42,1.53,1.53,0,0,0,.17.41,2.79,2.79,0,0,0,.24.31A.31.31,0,0,0,410,442.49Zm-2.28-14.92.68,6.19h.1a4.67,4.67,0,0,0,.51-.05l.87-.13a2.91,2.91,0,0,0,.87-.3,2.72,2.72,0,0,0,.81-.68,3.1,3.1,0,0,0,.57-1.1,3.81,3.81,0,0,0,.1-1.58,3.45,3.45,0,0,0-.45-1.47,2.3,2.3,0,0,0-.9-.8,3.12,3.12,0,0,0-1.27-.26,10.27,10.27,0,0,0-1.59.14Z" transform="translate(-239.53 -158.37)"/><path d="M427.16,438.54l.09,0a.51.51,0,0,0,.37-.67,1.22,1.22,0,0,0-.14-.39l-2.88-5.31-3.42,1-.59,6.22a1.48,1.48,0,0,0,0,.37.8.8,0,0,0,.23.46.37.37,0,0,0,.33.09l.1,0,.05.24-2.17.63-.05-.24.1,0c.17-.05.31-.22.43-.51a4.22,4.22,0,0,0,.23-1l1.64-15.91,7.17,13.19a4.15,4.15,0,0,0,.57.82.65.65,0,0,0,.72.27l.1,0,0,.24-2.89.84Zm-5.94-6.26,3-.88-2.48-4.57Z" transform="translate(-239.53 -158.37)"/><path d="M428.52,421.49l2.7-1.13a4.72,4.72,0,0,1,3.47-.35,3.23,3.23,0,0,1,1.87,2.35,4.16,4.16,0,0,1,.11,1.91A5,5,0,0,1,436,426a5.8,5.8,0,0,1-1.17,1.39,5.33,5.33,0,0,1-1.46.92l-.72.31,1.65,5.94a1.93,1.93,0,0,0,.15.39,1.8,1.8,0,0,0,.24.35,1.29,1.29,0,0,0,.28.25.28.28,0,0,0,.29,0l.1,0,.06.24-2.65,1.11-.07-.23.09,0a.41.41,0,0,0,.21-.25,1.31,1.31,0,0,0,.1-.4,1.77,1.77,0,0,0,0-.46,2.29,2.29,0,0,0-.07-.42l-3.46-12.42a2,2,0,0,0-.36-.68c-.18-.24-.36-.33-.56-.28l-.1,0Zm2.18,0,1.75,6.29.57-.24a4.2,4.2,0,0,0,1.3-.83,3.91,3.91,0,0,0,.81-1.09,3.56,3.56,0,0,0,.35-1.21,3.14,3.14,0,0,0-.1-1.19,4,4,0,0,0-.53-1.19,2.36,2.36,0,0,0-.89-.8,2.55,2.55,0,0,0-1.28-.27,4.82,4.82,0,0,0-1.71.42Z" transform="translate(-239.53 -158.37)"/><path d="M450.15,428.21l.09-.06a.39.39,0,0,0,.19-.25,1.31,1.31,0,0,0,.08-.42,2.42,2.42,0,0,0,0-.47,3,3,0,0,0-.11-.41l-2.27-6.1-5.84,3.27,2.26,6.1a2.61,2.61,0,0,0,.19.37,1.43,1.43,0,0,0,.25.33,1.12,1.12,0,0,0,.29.21.29.29,0,0,0,.3,0l.09,0,.08.22-2.55,1.43-.09-.22.09-.05a.46.46,0,0,0,.2-.26,1.67,1.67,0,0,0,.07-.42,1.86,1.86,0,0,0,0-.47,2.22,2.22,0,0,0-.11-.41l-4.44-11.94a1.74,1.74,0,0,0-.17-.33,1.37,1.37,0,0,0-.25-.32.72.72,0,0,0-.3-.2.3.3,0,0,0-.3,0l-.09.05-.08-.23,2.55-1.43.09.23-.09.05a.43.43,0,0,0-.21.26.91.91,0,0,0-.06.4,2.18,2.18,0,0,0,0,.44,1.77,1.77,0,0,0,.09.38L442,423l5.84-3.27-1.88-5.06a2.15,2.15,0,0,0-.17-.34,2.09,2.09,0,0,0-.25-.32.93.93,0,0,0-.3-.2.35.35,0,0,0-.3,0l-.09.05-.09-.22,2.56-1.43.09.22-.1.05a.58.58,0,0,0-.21.27,1.29,1.29,0,0,0-.06.4,3.42,3.42,0,0,0,0,.44,3,3,0,0,0,.1.38l4.44,11.93a2.61,2.61,0,0,0,.19.37,1.69,1.69,0,0,0,.27.32,1,1,0,0,0,.29.22.31.31,0,0,0,.28,0l.09-.05.08.22-2.56,1.43Z" transform="translate(-239.53 -158.37)"/><path d="M448.35,411.52l2.38-1.72.11.21a.64.64,0,0,0-.17.29.55.55,0,0,0,.05.39.63.63,0,0,0,.17.2l5.27,3.7-.05-7.08c0-.15,0-.25,0-.32A.79.79,0,0,0,456,407c-.13-.21-.27-.31-.4-.28a.62.62,0,0,0-.24.06l-.1-.22,1.85-1.33.1.21a1.05,1.05,0,0,0-.34.77,9,9,0,0,0-.08,1.13l.06,7.67,2.63,5.5a2.1,2.1,0,0,0,.22.33,4,4,0,0,0,.29.29.93.93,0,0,0,.32.18.32.32,0,0,0,.3,0l.09-.06.1.21-2.47,1.79-.1-.21.08-.07a.43.43,0,0,0,.19-.29,1.46,1.46,0,0,0,0-.43,2.44,2.44,0,0,0-.07-.46,3.09,3.09,0,0,0-.14-.4l-2.55-5.3-5.6-3.84-.39-.23a4.66,4.66,0,0,0-.45-.22,1.64,1.64,0,0,0-.45-.11.46.46,0,0,0-.36.07l-.09.06Z" transform="translate(-239.53 -158.37)"/></g><g id="Tekst"><text class="cls-4" transform="translate(33.1 119.72)">MONIKA </text><text class="cls-4" transform="translate(33.51 178.71)">M<tspan class="cls-5" x="51.48" y="0">O</tspan><tspan x="98.7" y="0">TYKA</tspan></text></g></svg>